<svg xmlns="http://www.w3.org/2000/svg" width="826" height="108" viewBox="0 0 826 108" fill="none"><g clip-path="url(#clip0_189_30)"><path d="M657.082 51.582H781.548C781.548 51.582 783.972 53.194 783.972 53.9999C783.972 54.8059 783.164 56.4179 781.548 56.4179H657.082C657.082 56.4179 654.657 55.6119 654.657 53.9999C654.657 52.388 656.274 51.582 657.082 51.582Z" fill="white"></path><path d="M791.246 54C791.246 54 794.479 47.5522 797.712 47.5522C800.945 47.5522 804.178 50.7761 804.178 54C804.178 57.2239 800.945 60.4478 797.712 60.4478C794.479 60.4478 791.246 57.2239 791.246 54Z" fill="white"></path><path d="M808.219 54C808.219 49.1641 812.26 45.1343 817.109 45.1343C821.958 45.1343 826 49.1641 826 54C826 58.8358 821.958 62.8656 817.109 62.8656C812.26 62.8656 808.219 58.8358 808.219 54Z" fill="white"></path><path d="M634.452 54C634.452 54 637.685 47.5522 640.917 47.5522C644.15 47.5522 647.383 50.7761 647.383 54C647.383 57.2239 644.15 60.4478 640.917 60.4478C637.685 60.4478 634.452 57.2239 634.452 54Z" fill="white"></path><path d="M621.52 62.8656C626.43 62.8656 630.411 58.8963 630.411 54C630.411 49.1036 626.43 45.1343 621.52 45.1343C616.61 45.1343 612.63 49.1036 612.63 54C612.63 58.8963 616.61 62.8656 621.52 62.8656Z" fill="white"></path><path d="M44.452 51.582H168.918C168.918 51.582 171.342 53.194 171.342 53.9999C171.342 54.8059 169.726 56.4179 168.918 56.4179H44.452C44.452 56.4179 42.0273 55.6119 42.0273 53.9999C42.0273 52.388 43.6438 51.582 44.452 51.582Z" fill="white"></path><path d="M178.616 54C178.616 54 181.849 47.5522 185.082 47.5522C188.315 47.5522 191.548 50.7761 191.548 54C191.548 57.2239 188.315 60.4478 185.082 60.4478C181.849 60.4478 178.616 57.2239 178.616 54Z" fill="white"></path><path d="M196.397 54C196.397 49.1641 200.438 45.1343 205.287 45.1343C210.137 45.1343 214.178 49.1641 214.178 54C214.178 58.8358 210.137 62.8656 205.287 62.8656C200.438 62.8656 196.397 58.8358 196.397 54Z" fill="white"></path><path d="M21.8218 54C21.8218 54 25.0547 47.5522 28.2875 47.5522C31.5204 47.5522 34.7533 50.7761 34.7533 54C34.7533 57.2239 31.5204 60.4478 28.2875 60.4478C25.0547 60.4478 21.8218 57.2239 21.8218 54Z" fill="white"></path><path d="M0 54C0 49.1641 4.0411 45.1343 8.89041 45.1343C13.7397 45.1343 17.7808 49.1641 17.7808 54C17.7808 58.8358 13.7397 62.8656 8.89041 62.8656C4.0411 62.8656 0 58.8358 0 54Z" fill="white"></path><path d="M406.534 12.0896C402.493 19.3433 397.644 26.597 393.603 33.8507C386.329 38.6866 379.055 42.7164 371.781 46.7463C367.74 49.1642 363.699 51.5821 359.658 53.194C363.699 55.6119 367.74 57.2239 371.781 59.6418C379.055 63.6716 386.329 68.5075 393.603 72.5373C398.452 79.791 402.493 87.0448 406.534 94.2985C408.959 98.3284 411.384 102.358 413 106.388C415.425 102.358 417.041 98.3284 419.466 94.2985C423.507 87.0448 428.356 79.791 432.397 72.5373C439.671 67.7015 446.945 63.6716 454.219 59.6418C458.26 57.2239 462.302 54.806 466.343 53.194C462.302 50.7761 458.26 49.1642 454.219 46.7463C446.945 42.7164 439.671 37.8806 432.397 33.8507C427.548 26.597 423.507 19.3433 419.466 12.0896C417.041 8.0597 414.617 4.02985 413 0C410.576 4.02985 408.959 8.0597 406.534 12.0896ZM445.329 54C438.863 58.0299 431.589 61.2537 424.315 65.2836C420.274 72.5373 417.041 78.9851 413 86.2388C409.767 79.791 405.726 72.5373 401.685 65.2836C394.411 61.2537 387.945 58.0299 380.671 54C387.137 49.9702 394.411 46.7463 401.685 42.7164C405.726 35.4627 408.959 29.0149 413 21.7612C417.041 28.209 420.274 35.4627 424.315 42.7164C431.589 46.7463 438.055 49.9702 445.329 54Z" fill="white"></path><path d="M226.301 54C226.301 54 222.26 48.3582 221.452 45.9403C220.644 41.1045 221.452 37.0747 222.26 34.6568C225.493 29.015 229.534 28.209 229.534 28.209C229.534 28.209 225.493 29.8209 224.685 35.4627C224.685 37.8806 224.685 41.9105 225.493 45.1344C227.109 48.3582 230.342 51.5821 234.383 52.3881C238.425 54 244.082 53.1941 248.931 51.5821C253.781 49.9702 258.63 45.9403 262.671 41.9105C267.52 37.8806 271.561 32.2388 277.219 27.403C282.877 22.5672 289.342 16.9254 297.425 15.3135C305.507 12.8956 315.205 13.7015 321.671 18.5374C328.137 23.3732 331.37 30.6269 331.37 37.8806C331.37 41.1045 329.753 45.1344 328.137 47.5523C326.52 49.9702 324.096 51.5821 321.671 53.1941C316.822 55.612 311.972 55.612 307.931 53.1941C300.657 50.7762 298.233 45.1344 296.616 42.7165C295.808 39.4926 295.808 37.8806 295.808 37.8806C295.808 37.8806 295.808 39.4926 298.233 41.1045C299.849 42.7165 303.89 45.9403 309.548 46.7463C311.972 46.7463 315.205 46.7463 317.63 44.3284C320.055 42.7165 321.671 40.2985 321.671 37.0747C321.671 33.8508 319.246 29.8209 316.014 28.209C312.781 25.7911 307.123 25.7911 301.466 27.403C290.151 30.6269 281.26 41.9105 269.945 49.9702C267.52 51.5821 265.904 53.1941 263.479 54.806C265.904 56.418 268.329 58.0299 269.945 59.6418C281.26 68.5075 290.151 79.7911 301.466 82.209C307.123 83.8209 312.781 83.015 316.014 81.403C319.246 78.9851 321.671 74.9553 321.671 72.5374C321.671 69.3135 320.055 66.8956 317.63 65.2836C315.205 63.6717 311.972 62.8657 309.548 62.8657C303.89 62.8657 300.657 66.0896 298.233 68.5075C295.808 70.9254 295.808 71.7314 295.808 71.7314C295.808 71.7314 295.808 70.1194 296.616 66.8956C298.233 64.4777 300.657 58.8359 307.931 56.418C311.972 54.806 316.822 54.806 321.671 56.418C324.096 57.2239 326.52 58.8359 328.137 62.0597C329.753 64.4777 331.37 67.7015 331.37 71.7314C331.37 78.9851 328.137 86.2388 321.671 91.0747C314.397 95.9105 305.507 96.7165 297.425 94.2985C289.342 91.8806 282.068 87.0448 277.219 82.209C271.561 77.3732 267.52 71.7314 262.671 67.7015C257.822 63.6717 253.781 59.6418 248.931 58.0299C244.082 56.418 239.233 55.612 234.383 57.2239C230.342 58.0299 227.109 61.2538 225.493 64.4777C223.877 67.7015 223.877 71.7314 224.685 74.1493C226.301 79.7911 230.342 81.403 229.534 81.403C229.534 81.403 225.493 81.403 222.26 74.9553C220.644 71.7314 219.835 67.7015 221.452 63.6717C221.452 60.4478 223.877 58.0299 226.301 55.612V54Z" fill="white"></path><path d="M599.698 53.9999C599.698 53.9999 603.739 59.6417 604.548 62.0596C605.356 66.8954 604.548 70.9253 603.739 73.3432C600.507 78.985 596.466 79.791 596.466 79.791C596.466 79.791 600.507 78.179 601.315 72.5372C601.315 70.1193 601.315 66.0895 600.507 62.8656C598.89 59.6417 595.657 56.4178 591.616 55.6119C587.575 53.9999 581.918 54.8059 577.068 56.4178C572.219 58.0298 567.37 62.0596 563.329 66.0895C558.479 70.1193 554.438 75.7611 548.781 80.5969C543.123 85.4328 536.657 91.0745 528.575 92.6865C520.493 95.1044 510.794 94.2984 504.329 89.4626C497.863 84.6268 494.63 77.3731 494.63 70.1193C494.63 66.8954 496.246 62.8656 497.863 60.4477C499.479 58.0298 501.904 56.4178 504.329 54.8059C509.178 52.388 514.027 52.388 518.068 54.8059C525.342 57.2238 527.767 62.8656 529.383 65.2835C530.192 68.5074 530.192 70.1193 530.192 70.1193C530.192 70.1193 530.192 68.5074 527.767 66.8954C526.15 65.2835 522.109 62.0596 516.452 61.2537C514.027 61.2537 510.794 61.2537 508.37 63.6716C505.945 65.2835 504.329 67.7014 504.329 70.9253C504.329 74.1492 506.753 78.179 509.986 79.791C513.219 82.2089 518.876 82.2089 524.534 80.5969C535.849 77.3731 544.739 66.0895 556.055 58.0298C558.479 56.4178 560.096 54.8059 562.52 53.194C560.096 51.582 557.671 49.9701 556.055 48.3581C544.739 39.4925 535.849 28.2089 524.534 25.791C518.876 24.179 513.219 24.985 509.986 26.5969C506.753 29.0148 504.329 33.0447 504.329 35.4626C504.329 38.6865 505.945 41.1044 508.37 42.7163C510.794 44.3283 514.027 45.1342 516.452 45.1342C522.109 45.1342 525.342 41.9104 527.767 39.4925C530.192 37.0745 530.192 36.2686 530.192 36.2686C530.192 36.2686 530.192 37.8805 529.383 41.1044C527.767 43.5223 525.342 49.1641 518.068 51.582C514.027 53.1939 509.178 53.1939 504.329 51.582C501.904 50.776 499.479 49.1641 497.863 45.9402C496.246 43.5223 494.63 40.2984 494.63 36.2686C494.63 29.0148 497.863 21.7611 504.329 16.9253C511.602 12.0895 520.493 11.2835 528.575 13.7014C536.657 16.1193 543.931 20.9551 548.781 25.791C554.438 30.6268 558.479 36.2686 563.329 40.2984C568.178 44.3283 572.219 48.3581 577.068 49.9701C581.918 51.582 586.767 52.388 591.616 50.776C595.657 49.9701 598.89 46.7462 600.507 43.5223C602.123 40.2984 602.123 36.2686 601.315 33.8507C599.698 28.2089 595.657 26.5969 596.466 26.5969C596.466 26.5969 600.507 26.5969 603.739 33.0447C605.356 36.2686 606.164 40.2984 604.548 44.3283C604.548 47.5522 602.123 49.9701 599.698 52.388V53.9999Z" fill="white"></path><path d="M332.986 53.9999C332.986 53.9999 338.644 50.776 341.069 48.3581C347.534 42.7163 351.575 36.2686 354 33.8507C358.849 29.0148 367.74 24.985 370.973 28.2089C374.206 31.4328 370.973 40.2984 364.507 45.9402C362.082 48.3581 355.616 52.388 348.342 54.8059C355.616 57.2238 362.082 61.2537 364.507 63.6716C370.164 69.3134 374.206 78.179 370.973 81.4029C367.74 84.6268 358.849 80.5969 354 75.7611C351.575 73.3432 346.726 66.8954 341.069 61.2536C338.644 58.8357 336.219 57.2238 332.986 55.6119V53.9999Z" fill="white"></path><path d="M493.822 54C493.822 54 488.164 57.2239 485.74 59.6418C479.274 65.2836 475.233 71.7314 472.808 74.1493C467.959 78.9851 459.069 83.015 455.836 79.7911C452.603 76.5672 455.836 67.7015 462.301 62.0597C464.726 59.6418 471.192 55.612 478.466 53.1941C471.192 50.7762 464.726 46.7463 462.301 44.3284C456.644 38.6866 452.603 29.8209 455.836 26.5971C459.069 23.3732 467.959 27.403 472.808 32.2388C475.233 34.6568 480.082 41.1045 485.74 46.7463C488.164 49.1642 490.589 50.7762 493.822 52.3881V54Z" fill="white"></path><path d="M435.63 31.4329C433.205 26.5971 429.973 18.5374 427.548 15.3135C429.973 18.5374 435.63 24.1791 439.671 27.403C443.712 31.4329 448.562 37.0747 451.794 39.4926C448.562 37.0747 440.479 33.8508 435.63 31.4329Z" fill="white"></path><path d="M390.37 31.4329C385.521 33.8508 377.438 37.0747 374.206 39.4926C377.438 37.0747 383.096 31.4329 386.329 27.403C390.37 23.3732 396.027 18.5374 398.452 15.3135C396.027 18.5374 392.795 26.5971 390.37 31.4329Z" fill="white"></path><path d="M390.37 76.5673C392.795 81.4031 396.027 89.4628 398.452 92.6867C396.027 89.4628 390.37 83.821 386.329 80.5971C382.288 76.5673 377.438 70.9255 374.206 68.5076C377.438 70.9255 385.521 74.1494 390.37 76.5673Z" fill="white"></path><path d="M435.63 76.5673C440.479 74.1494 448.562 70.9255 451.794 68.5076C448.562 70.9255 442.904 76.5673 439.671 80.5971C435.63 84.627 429.973 89.4628 427.548 92.6867C429.973 89.4628 433.205 81.4031 435.63 76.5673Z" fill="white"></path><path d="M482.507 80.5969C482.507 80.5969 480.082 75.7611 480.891 72.5372C480.891 70.9253 484.123 66.8955 487.356 64.4775C490.589 61.2537 493.822 59.6417 496.247 58.0298C493.822 59.6417 491.397 62.8656 489.781 66.8955C488.165 70.1193 487.356 73.3432 487.356 74.9552C486.548 77.3731 484.123 81.4029 482.507 80.5969Z" fill="white"></path><path d="M343.493 27.4029C343.493 27.4029 345.918 32.2387 345.11 35.4626C345.11 37.0746 341.877 41.1044 338.644 43.5223C335.411 46.7462 332.178 48.3581 329.753 49.9701C332.178 48.3581 334.603 45.1343 336.219 41.1044C337.836 37.8805 338.644 34.6567 338.644 33.0447C339.452 30.6268 341.877 26.597 343.493 27.4029Z" fill="white"></path><path d="M482.507 27.4029C482.507 27.4029 480.082 32.2387 480.891 35.4626C480.891 37.0746 484.123 41.1044 487.356 43.5223C490.589 46.7462 493.822 48.3581 496.247 49.9701C493.822 48.3581 491.397 45.1343 489.781 41.1044C488.165 37.8805 487.356 34.6567 487.356 33.0447C486.548 30.6268 484.123 26.597 482.507 27.4029Z" fill="white"></path><path d="M343.493 80.5969C343.493 80.5969 345.918 75.7611 345.11 72.5372C345.11 70.9253 341.877 66.8955 338.644 64.4775C335.411 61.2537 332.178 59.6417 329.753 58.0298C332.178 59.6417 334.603 62.8656 336.219 66.8955C337.836 70.1193 338.644 73.3432 338.644 74.9552C339.452 77.3731 341.877 81.4029 343.493 80.5969Z" fill="white"></path></g><defs><clipPath id="clip0_189_30"><rect width="826" height="108" fill="white"></rect></clipPath></defs></svg>