<svg xmlns="http://www.w3.org/2000/svg" width="1182" height="370" viewBox="0 0 1182 370" fill="none"><g clip-path="url(#clip0_189_6)"><path d="M225.462 304.095C213.409 303.907 202.138 300.909 191.042 297.629C180.105 294.4 169.379 290.388 158.754 286.218C154.876 284.697 151.245 282.098 148.071 279.332C134.423 267.428 124.182 253.222 119.978 235.294C117.427 224.404 114.811 213.499 112.897 202.486C111.535 194.659 111.122 186.644 110.593 178.693C109.723 165.45 109.092 152.192 108.375 138.942C108.121 134.286 107.846 129.63 107.665 124.967C107.157 112.028 106.983 99.0746 106.114 86.1644C105.331 74.5575 104.12 62.9507 102.439 51.4452C101.584 45.573 99.5688 39.8094 97.525 34.1979C95.9305 29.8317 92.3429 28.9773 87.9508 30.9323C82.7034 33.2783 80.4784 38.2237 77.5068 42.5681C75.2165 45.9206 74.0641 50.4605 68.3457 51.0615C68.8893 48.6141 69.3966 46.2971 69.9185 43.9801C72.832 30.983 79.6014 20.0206 87.8058 9.76048C91.2847 5.40158 95.0825 1.75227 100.699 0.405495C105.49 -0.745777 109.788 0.362051 111.846 4.86577C114.608 10.8973 117.116 17.2474 118.333 23.7278C120.036 32.8004 120.674 42.0975 121.363 51.3294C122.109 61.3505 122.421 71.4006 122.863 81.4435C123.167 88.3945 123.334 95.3456 123.602 102.297C124.073 114.512 124.443 126.727 125.088 138.935C125.624 149.057 126.168 159.201 127.299 169.266C129.277 186.984 131.031 204.811 137.409 221.667C142.91 236.192 151.912 247.972 165.668 255.727C166.878 256.408 168.284 256.763 169.988 257.422C169.988 252.918 170.017 248.747 169.988 244.584C169.864 228.864 174.88 214.977 184.193 202.342C191.557 192.349 201.015 184.718 210.35 176.789C218.41 169.947 226.918 163.227 231.695 153.416C233.296 150.122 234.296 146.212 234.362 142.562C234.528 133.207 234.195 123.823 233.717 114.476C233.224 104.831 232.695 95.1646 231.513 85.5924C229.542 69.5977 229.346 53.574 229.361 37.5069C229.361 34.2196 228.353 30.9395 228.208 27.6378C228.107 25.1977 228.31 22.6272 228.991 20.2957C230.412 15.4517 232.151 10.6873 233.978 5.9736C234.514 4.59786 235.587 3.25833 236.746 2.32428C240.363 -0.579241 244.595 1.33231 245.371 6.03876C247.27 17.5732 249.473 29.0714 251.046 40.6493C252.22 49.2513 252.604 57.9619 253.329 66.6217C254.293 78.0114 255.257 89.401 256.199 100.798C256.496 104.368 256.663 107.944 256.953 111.514C257.902 123.143 258.468 134.829 259.953 146.393C262.149 163.473 264.585 180.525 269.934 197.034C272.992 206.483 281.784 215.179 289.857 219.183C289.176 217.272 288.517 215.824 288.132 214.31C286.277 206.896 286.009 199.481 286.429 191.777C286.944 182.241 289.183 173.306 292.525 164.567C296.431 154.343 301.287 144.64 309.274 136.799C315.565 130.622 323.132 126.56 331.604 125.25C343.404 123.425 355.398 122.817 366.763 127.951C375.511 131.904 380.128 139.318 382.889 148.08C383.041 148.558 381.425 150.259 380.642 150.259C376.46 150.245 372.249 150.15 368.118 149.564C357.073 148 346.179 148.398 335.417 151.367C326.386 153.865 317.739 157.268 309.999 162.662C305.143 166.044 301.091 170.446 300.736 176.369C300.49 180.518 301.671 185.21 303.606 188.932C307.237 195.919 311.231 202.935 316.283 208.923C321.566 215.187 329.314 217.866 337.504 219.212C355.862 222.232 370.343 213.347 384.607 204.086C391.47 199.633 397.616 194.152 402.356 187.288C404.668 183.943 406.633 183.117 413.127 181.785C415.96 202.204 409.075 219.227 393.79 232.535C378.367 245.959 360.24 254.265 340.106 258.348C330.749 260.245 321.327 261.093 311.934 260.318C289.836 258.493 271.615 249.645 259.816 229.892C253.032 218.546 249.48 206.121 247.654 193.24C246.168 182.77 245.661 172.169 244.624 161.634C244.277 158.108 243.668 154.618 243.175 151.106C242.798 151.121 242.428 151.128 242.052 151.142C240.74 157.167 239.667 163.249 238.065 169.194C235.992 176.912 232.666 184.088 227.078 189.989C221.541 195.839 216.069 201.755 210.321 207.388C205.197 212.406 199.551 216.903 194.485 221.971C191.231 225.222 188.745 229.226 185.664 232.666C183.635 234.932 184.026 236.894 185.164 239.341C189.136 247.886 196.101 253.374 204.153 257.458C213.307 262.106 222.758 266.183 232.086 270.505C232.405 270.658 232.753 270.759 233.064 270.918C238.718 273.88 238.616 273.872 238.167 280.128C237.775 285.501 237.529 290.888 237.435 296.275C237.312 303.414 237.232 303.69 230.397 304.522C228.897 304.703 227.324 304.32 225.476 304.052L225.462 304.095Z" fill="#FCFCFC"></path><path d="M277.21 358.929C259.787 359.414 242.697 360.406 225.621 360.218C211.981 360.066 198.348 358.654 184.737 357.473C173.662 356.518 162.544 355.584 151.6 353.723C138.562 351.507 125.516 348.944 112.789 345.418C86.8276 338.228 64.019 324.55 42.6745 308.577C24.2074 294.754 10.1178 277.196 2.18881 255.227C1.01468 251.969 0.703028 248.399 0 244.975C0.44211 244.757 0.884221 244.533 1.32633 244.316C2.10908 245.134 3.06578 245.844 3.65285 246.785C6.32725 251.028 8.78422 255.408 11.5311 259.601C15.8 266.125 22.6926 269.615 28.8459 273.894C44.3995 284.719 60.7938 294.154 78.0071 302.097C94.8725 309.888 112.55 315.376 130.567 319.822C139.598 322.052 148.542 324.68 157.638 326.599C164.045 327.946 170.626 328.851 177.163 329.155C197.942 330.111 218.743 331.146 239.537 331.24C250.988 331.291 262.483 329.843 273.891 328.511C287.879 326.882 301.911 325.231 315.732 322.559C332.119 319.395 348.361 315.398 364.538 311.249C376.555 308.164 388.55 304.776 400.233 300.619C417.446 294.494 434.471 287.796 451.395 280.896C466.1 274.9 479.284 266.161 491.714 256.372C495.671 253.258 499.106 249.42 502.433 245.612C503.172 244.765 502.977 242.346 502.31 241.159C498.258 233.947 491.511 230.92 483.654 230.073C465.491 228.111 447.162 227.38 429.463 222.159C426.897 221.399 425.607 220.602 425.767 217.677C426.02 213.058 425.513 208.387 425.897 203.782C426.818 192.675 431.978 188.048 443.255 187.397C459.005 186.484 474.174 184.001 487.64 174.045C484.966 167.492 482.052 160.83 479.508 154.039C473.776 138.732 468.166 123.374 462.679 107.973C462.099 106.337 462.36 104.201 462.795 102.434C464.6 95.15 466.586 87.9165 468.615 80.6975C468.905 79.6766 469.826 78.8367 471.101 76.9541C478.059 84.622 484.72 91.631 490.974 98.9876C494.591 103.245 497.57 108.038 500.744 112.658C501.404 113.614 502.027 114.866 501.991 115.967C501.926 117.973 501.904 120.355 500.824 121.81C500.099 122.795 497.57 122.744 495.881 122.628C494.2 122.513 492.562 121.738 489.749 120.912C491.148 124.605 492.098 127.219 493.127 129.797C495.555 135.893 498.338 141.874 500.396 148.094C503.745 158.217 500.86 168.209 498.853 178.128C497.722 183.733 496.258 189.272 494.671 194.768C493.866 197.555 494.613 198.699 497.345 199.59C508.289 203.152 514.827 210.603 517.305 221.949C518.958 229.509 518.458 236.901 517.11 244.323C515.095 255.372 511.797 265.958 504.085 274.538C496.99 282.431 488.887 289.215 479.951 294.928C464.883 304.566 448.858 312.335 432.355 319.214C416.127 325.984 399.573 331.697 382.636 336.446C370.459 339.857 358.609 344.426 346.419 347.771C336.315 350.544 325.995 352.716 315.645 354.374C303.498 356.329 291.22 357.445 279.001 358.914C278.522 358.972 278.037 358.922 277.21 358.922V358.929Z" fill="white"></path><path d="M563.22 339.169C550.681 342.594 539.288 341.638 530.221 331.704C524.06 324.956 521.263 316.513 520.139 307.621C519.451 302.162 519.284 296.601 519.378 291.091C519.712 271.411 524.154 252.527 531.032 234.179C532.308 230.783 534.098 227.575 535.649 224.288C536.186 224.339 536.729 224.389 537.266 224.433C537.787 226.96 539.099 229.625 538.679 231.985C537.164 240.529 535.171 248.993 533.149 257.443C531.09 266.067 528.706 274.669 529.525 283.626C530.757 297.173 538.034 307.759 552.696 307.904C559.588 307.976 566.807 305.442 573.381 302.821C593.211 294.921 610.221 282.091 627.731 270.259C645.039 258.558 661.825 246.09 678.806 233.911C679.966 233.078 681.002 231.985 681.872 230.848C685.177 226.554 684.626 223.941 679.98 221.29C664.405 212.399 648.764 203.616 633.269 194.572C618.15 185.753 606.713 173.133 597.016 158.76C593.95 154.213 590.696 149.767 587.238 145.509C582.897 140.173 583.709 134.011 583.977 127.951C584.187 123.302 584.818 118.675 585.282 114.041C585.448 112.383 585.622 110.725 585.927 109.088C587.014 103.115 587.115 102.985 592.486 105.888C600.27 110.095 607.974 114.454 615.635 118.878C620.672 121.781 625.775 124.649 630.486 128.03C633.392 130.123 631.783 136.14 628.268 137.153C626.34 137.711 624.282 137.943 622.267 138.051C619.375 138.211 616.476 138.109 613.577 138.138C613.352 138.138 613.12 138.261 612.649 138.399C615.642 145.111 620.65 150.1 626.572 153.908C636.414 160.237 646.626 165.986 656.679 171.988C666.412 177.803 676.422 183.226 685.8 189.569C695.498 196.122 700.419 205.564 700.6 217.598C700.825 231.956 697.092 244.997 687.764 255.807C682.495 261.918 676.052 267.189 669.536 272.041C653.454 284.024 637.385 296.094 620.629 307.1C605.264 317.194 589.058 326.013 573.12 335.216C570.156 336.924 566.706 337.801 563.212 339.176L563.22 339.169Z" fill="white"></path><path d="M956.756 294.262C945.13 294.175 933.759 294.624 922.518 293.596C902.869 291.8 883.583 287.746 865.804 278.818C849.171 270.469 835.299 259.029 828.79 240.732C825.253 230.79 824.442 220.588 825.782 210.053C827.544 196.187 831.863 183.168 837.604 170.562C838.756 168.021 840.749 165.863 842.583 163.206C846.279 166.638 845.953 170.533 845.098 174.125C844.17 178.02 842.51 181.763 840.988 185.492C834.023 202.573 837.458 217.967 848.598 232.036C859.042 245.228 873.893 250.898 889.49 254.46C900.825 257.052 912.48 258.66 924.083 259.601C938.078 260.731 952.204 261.505 966.214 260.941C982.391 260.289 998.416 257.472 1014.09 253.157C1035.02 247.393 1055.67 240.84 1075.02 230.79C1084.03 226.113 1092.82 221.088 1100.31 214.079C1101.94 212.551 1102.17 211.175 1101.44 209.01C1099.31 202.675 1096.14 197.078 1091.45 192.255C1086.98 187.65 1084.54 182.249 1084.54 175.551C1084.55 167.246 1085.82 159.223 1087.87 150.925C1092.69 152.2 1095.73 155.777 1097.81 159.172C1103.64 168.679 1108.98 178.541 1113.75 188.628C1117 195.485 1116.47 203.131 1115.13 210.509C1113.91 217.142 1112.84 223.861 1110.83 230.276C1108.27 238.509 1102.67 244.968 1095.48 249.464C1087.21 254.619 1078.56 259.232 1069.76 263.431C1060.33 267.935 1050.81 272.569 1040.84 275.567C1021.28 281.461 1001.47 286.602 981.594 291.344C973.65 293.241 965.257 293.256 956.749 294.255L956.756 294.262Z" fill="#FDFDFD"></path><path d="M1004.63 331.197C1021.94 323.015 1039.35 315.615 1055.96 306.738C1076.86 295.558 1097.25 283.401 1117.58 271.193C1127.06 265.509 1136.14 259.08 1144.88 252.317C1151.13 247.487 1156.87 241.861 1162.17 235.989C1167.16 230.45 1165 224.114 1162.09 218.286C1159.75 213.594 1156.75 209.227 1154.52 204.492C1146.23 186.904 1139.19 168.846 1135.59 149.658C1134.96 146.277 1135.61 142.446 1136.48 139.029C1137.96 133.171 1140.02 127.451 1141.96 121.716C1142.44 120.312 1143.41 119.066 1144.66 116.829C1146.71 119.776 1148.3 122.049 1149.88 124.323C1156.18 133.403 1162.42 142.541 1168.83 151.548C1173.29 157.811 1179.14 163.169 1180.64 171.236C1181.35 175.008 1180.02 176.637 1176.32 175.479C1172.5 174.284 1168.83 172.626 1164.68 171.004C1165.58 173.009 1166.34 175.001 1167.35 176.869C1172.44 186.332 1177.48 195.81 1178.87 206.693C1180.39 218.582 1179.2 230.327 1175.88 241.738C1172.8 252.368 1167.98 262.439 1159.89 270.122C1152.3 277.334 1143.92 283.771 1135.5 290.034C1121.8 300.221 1107.13 308.925 1091.87 316.593C1078.22 323.45 1064.72 330.625 1050.81 336.91C1045.53 339.292 1039.34 339.763 1033.52 340.784C1023.43 342.543 1013.3 343.991 1003.21 345.679C988.537 348.126 973.896 350.725 959.22 353.122C955.647 353.708 951.994 353.759 948.377 354.056C948.283 353.614 948.189 353.173 948.087 352.731C949.044 352.333 949.994 351.92 950.965 351.544C968.417 344.86 985.862 338.177 1003.32 331.508C1003.66 331.385 1004.03 331.385 1004.64 331.204L1004.63 331.197Z" fill="#FDFDFD"></path><path d="M579.513 342.992C603.278 332.826 627.203 323.609 650.142 312.393C668.993 303.176 686.945 292.003 704.789 280.903C719.067 272.019 732.91 262.345 746.34 252.223C753.936 246.495 760.372 239.211 767.221 232.521C770.656 229.168 770.584 225.324 768.808 220.972C762.691 205.94 756.436 190.945 751.022 175.66C748.297 167.977 746.478 159.766 745.753 151.657C745.311 146.689 747.558 141.425 748.906 136.379C750 132.288 751.566 128.32 752.878 124.424C757.538 124.895 759.872 127.241 761.843 130.811C766.286 138.848 771.396 146.516 775.897 154.524C778.506 159.165 780.47 164.169 782.978 169.563C777.6 170.07 773.802 168.564 770.925 164.48C770.656 164.77 770.381 165.052 770.113 165.342C771.483 168.897 772.758 172.503 774.251 176.007C778.723 186.47 782.608 197.135 783.702 208.518C784.63 218.141 782.876 227.546 780.484 236.901C775.759 255.38 763.445 268.304 749.798 280.534C735.947 292.952 721.053 303.921 705.376 313.841C691.011 322.928 676.371 331.675 659.991 336.678C653.091 338.785 645.764 339.524 638.618 340.82C627.587 342.818 616.548 344.788 605.51 346.721C594.472 348.654 583.426 350.573 572.381 352.427C568.518 353.079 564.619 353.527 560.582 353.636C565.945 348.502 572.881 346.301 579.505 342.999L579.513 342.992Z" fill="white"></path><path d="M1137.85 53.5812C1123.13 59.8806 1108.66 66.0279 1094.22 72.2405C1082.72 77.1786 1071.25 82.182 1059.78 87.1853C1044.05 94.0495 1028.33 100.914 1012.62 107.829C1009.69 109.117 1006.87 110.652 1003.21 112.455C1003.71 110.486 1003.81 109.183 1004.36 108.111C1006.63 103.643 1008.43 98.7342 1011.58 94.9618C1014.61 91.3414 1018.71 88.1266 1022.99 86.1209C1046 75.3685 1069.07 64.7029 1092.41 54.6818C1117.68 43.8352 1143.28 33.7489 1168.73 23.2933C1172.78 21.6279 1176.76 19.8105 1182 17.5225C1181.35 20.0277 1181.28 21.751 1180.51 23.0833C1177.36 28.5428 1174.43 34.2195 1170.54 39.1215C1168.68 41.4675 1164.93 42.4522 1161.9 43.7338C1154.01 47.0718 1146.04 50.2287 1137.85 53.5812Z" fill="#FDFDFD"></path><path d="M911.595 115.887C891.946 126.589 870.225 129.963 849.308 135.857C848.315 136.14 847.17 135.894 845.844 135.256C846.692 134.771 847.482 134.076 848.388 133.823C864.768 129.225 879.053 120.297 893.758 112.18C905.797 105.533 916.98 97.8292 926.105 87.4822C931.359 81.5304 936.404 75.3468 941.021 68.8953C944.789 63.6313 945.521 57.7881 941.093 51.7783C938.455 55.319 934.976 55.6304 931.301 53.8491C927.388 51.9521 922.611 50.7067 922.01 45.3848C921.691 42.6043 921.959 39.6936 922.408 36.9131C922.981 33.4086 923.959 29.9621 924.865 26.5155C926.402 20.7012 933.237 18.7172 937.701 22.8082C945.116 29.6145 948.899 38.4264 951.247 47.948C952.74 53.994 953.922 60.1196 956.125 66.3104C957.647 60.5468 959.169 54.7832 960.698 49.0196C963.271 39.3098 966.764 29.9838 971.997 21.3529C974.302 17.5587 977.825 16.1178 982.014 16.5016C985.514 16.8274 987.102 19.5644 988.334 22.5258C991.211 29.4697 990.725 36.4859 988.798 43.5239C988.616 44.1973 988.196 44.82 987.797 45.4137C987.536 45.7975 987.123 46.0799 986.348 46.8184C985.71 44.9938 985.464 43.227 984.558 41.9237C983.26 40.0628 981.724 37.9703 979.789 37.1231C978.745 36.6669 975.868 38.173 975.172 39.4981C972.258 45.03 969.193 50.6343 967.417 56.5861C964.228 67.2734 961.996 78.2431 959.183 89.0462C958.625 91.1822 957.502 93.2893 956.183 95.0705C954.096 97.8799 952.081 97.5251 951.349 94.1002C950.109 88.3004 949.348 82.4065 948.392 76.5487C948.283 75.8971 948.218 75.2382 947.594 74.3693C943.854 82.9785 939.89 91.1388 933.324 98.1116C926.844 104.997 919.35 110.305 911.602 115.887H911.595Z" fill="#FDFDFD"></path><path d="M570.779 29.4915C571.083 28.8108 571.359 28.4054 571.533 27.9637C573.135 23.8437 576.063 22.8445 580.462 22.8155C593.319 22.7359 606.162 21.8091 619.02 21.6063C624.006 21.5267 629.007 22.5766 634.015 22.9097C636.342 23.0617 636.82 24.2492 636.748 26.2114C636.509 33.0032 634.008 39.1433 630.449 44.6825C626.268 51.1991 621.557 57.3971 616.751 63.4793C611.852 69.6919 604.517 71.2921 597.269 73.1819C586.905 75.8899 576.526 76.5126 565.916 75.2165C561.872 74.7242 557.711 75.1079 553.609 75.0934C552.334 75.0934 551.058 75.0934 549.782 75.0934C549.71 74.7097 549.645 74.3259 549.572 73.9349C552.703 72.8778 555.805 71.741 558.965 70.778C571.743 66.8752 584.637 63.3056 597.284 59.0263C603.691 56.8541 609.815 53.6465 614.838 47.9408H564.379C563.792 40.9318 568.032 35.5954 570.779 29.4915Z" fill="white"></path><path d="M970.128 172.01C970.128 163.575 969.99 155.487 970.193 147.406C970.28 144.105 970.932 140.788 971.686 137.559C972.026 136.118 973.266 134.887 974.694 132.621C975.36 134.605 975.839 135.416 975.882 136.248C976.187 142.483 975.94 148.782 976.788 154.937C977.542 160.389 978.687 166.08 981.122 170.939C983.688 176.065 988.211 180.026 994.726 180.062C997.466 180.076 998.778 179.374 997.915 175.913C995.654 166.811 992.98 157.645 992.32 148.369C991.863 141.853 994.407 135.104 995.748 128.494C995.857 127.965 997.038 127.646 998.444 126.792C999.452 131.745 1000.41 136.212 1001.26 140.701C1002.73 148.529 1004.69 156.312 1005.43 164.212C1006.38 174.363 1006.52 184.819 1001.35 194.029C995.415 204.608 986.21 203.862 978.332 194.927C976.563 192.929 975.375 190.416 973.599 187.636C971.86 191.633 970.309 195.173 968.765 198.721C967.055 202.667 964.924 206.251 960.133 206.845C954.081 207.591 949.131 205.535 946.188 200.097C940.919 190.351 940.535 179.779 941.572 169.056C942.122 163.358 942.601 157.645 943.354 151.968C943.898 147.848 944.848 143.779 945.616 139.688L947.102 139.804C947.276 140.759 947.66 141.722 947.602 142.664C947.196 148.854 946.268 155.052 946.326 161.236C946.398 168.455 948.037 175.45 952.835 181.242C955.589 184.566 959.176 186.043 963.423 184.855C966.641 183.95 970.019 178.462 970.12 174.53C970.142 173.806 970.12 173.082 970.12 172.01H970.128Z" fill="#FDFDFD"></path><path d="M364.792 44.6824C367.742 44.943 370.373 45.0589 372.945 45.4933C376.192 46.0436 376.837 47.6873 376.229 51.1918C374.714 59.953 370.206 67.2879 365.212 74.3113C362.415 78.2503 359.313 82.3702 355.406 85.0276C350.956 88.0542 345.614 90.154 340.367 91.5515C333.018 93.5064 325.415 94.4912 317.703 93.9554C311.847 93.5499 305.969 93.4702 300.106 93.1661C299.164 93.1154 298.243 92.652 296.779 92.2248C317.058 84.8683 338.888 83.1667 356.645 68.9387H310.637C310.419 62.9145 313.471 57.9329 315.957 52.7847C316.624 51.409 317.29 49.8812 318.377 48.8965C319.928 47.5062 321.835 45.6309 323.654 45.5585C337.236 45.0444 350.833 44.9286 364.777 44.6896L364.792 44.6824Z" fill="#FCFCFC"></path><path d="M756.291 324.898C738.926 334.072 721.807 343.166 703.963 352.651C704.296 350.682 704.441 349.552 704.688 348.444C706.739 339.169 711.914 332.79 720.647 328.409C734.642 321.393 748.196 313.486 761.872 305.84C778.781 296.384 795.617 286.804 812.497 277.297C813.614 276.667 814.838 276.226 816.672 275.4C816.31 277.275 816.223 278.564 815.81 279.73C814.599 283.097 813.222 286.406 811.968 289.758C810.649 293.27 808.294 295.594 804.953 297.441C791.566 304.855 778.339 312.545 765.039 320.119C762.235 321.719 759.386 323.247 756.299 324.89L756.291 324.898Z" fill="white"></path><path d="M757.48 99.9217C748.268 94.8387 739.266 89.9585 730.388 84.8683C727.619 83.2826 723.778 81.5665 722.974 79.0902C722.198 76.6863 724.684 73.2252 725.771 70.2421C728.003 64.073 730.337 57.9473 732.475 51.742C733.57 48.5706 735.454 47.47 738.368 49.1644C748.167 54.8773 757.886 60.7205 767.641 66.4914C770.562 68.2219 770.823 71.0747 769.917 73.6669C766.96 82.0878 763.684 90.4002 760.379 98.698C760.104 99.3859 758.647 99.6031 757.487 99.9217H757.48Z" fill="white"></path><path d="M432.355 35.2549C434.558 29.5347 436.783 24.1187 438.755 18.6157C439.451 16.6752 440.146 16.1829 442.147 16.9866C453.576 21.5699 463.716 28.311 473.558 35.5517C475.588 37.0433 476.023 38.8028 475.392 41.5036C473.384 50.1707 470.507 58.4396 466.267 66.2668C465.021 68.5621 463.571 69.1559 461.339 67.838C450.648 61.5386 439.929 55.2899 429.326 48.8384C428.586 48.3895 428.26 46.2897 428.586 45.2181C429.594 41.9163 431.007 38.7376 432.348 35.2476L432.355 35.2549Z" fill="white"></path><path d="M474.174 339.148C447.285 349.509 420.643 359.726 393.855 369.993C393.826 363.266 400.668 353.209 406.336 350.993C435.044 339.785 463.745 328.554 492.438 317.302C495.164 316.231 497.831 314.992 500.52 313.834C500.788 314.102 501.056 314.37 501.331 314.638C499.215 318.54 496.693 322.277 495.077 326.375C492.214 333.637 484.988 334.057 479.436 337.098C477.885 337.946 476.095 338.38 474.174 339.14V339.148Z" fill="white"></path><path d="M394.565 277.08C366.865 287.659 339.446 298.216 311.202 309.084C311.543 307.325 311.55 306.55 311.833 305.891C317.725 292.488 319.428 291.279 333.974 285.754C357.841 276.689 381.577 267.291 405.364 258.023C409.597 256.372 413.801 254.663 418.019 252.976C418.331 253.251 418.649 253.526 418.961 253.801C416.953 257.53 414.627 261.122 413.018 265.017C410.496 271.107 404.951 272.714 399.697 274.915C398.066 275.596 396.457 276.342 394.558 277.087L394.565 277.08Z" fill="#FCFCFC"></path><path d="M865.964 307.752C875.994 303.668 885.779 299.736 895.563 295.804L896.469 296.579C894.07 300.953 891.439 305.217 889.323 309.728C886.54 315.651 880.531 316.325 875.56 318.265C847.511 329.22 819.317 339.828 791.182 350.559C790.341 350.877 789.522 351.261 788.688 351.616C788.391 351.384 788.094 351.152 787.804 350.921C790.725 345.859 792.95 340.175 796.791 335.961C799.531 332.949 804.344 331.653 808.409 330.046C826.797 322.798 845.242 315.709 863.666 308.57C864.333 308.309 865.029 308.128 865.949 307.759L865.964 307.752Z" fill="#FDFDFD"></path><path d="M909.45 331.653C910.668 327.244 911.878 323.044 913.357 318.938C915.35 313.385 917.546 307.911 919.959 301.604C926.113 304.826 931.882 307.607 937.412 310.807C941.724 313.305 945.667 316.44 949.907 319.069C952.458 320.647 953.473 322.892 952.603 325.448C950.016 333.08 947.109 340.603 944.326 348.169C943.514 350.385 942.029 350.754 940.057 349.661C932.578 345.519 925.062 341.428 917.633 337.192C914.842 335.607 912.248 333.673 909.45 331.646V331.653Z" fill="#FDFDFD"></path><path d="M56.9091 145.364C57.9601 143.236 58.9602 141.382 60.2866 138.927C62.903 141.911 62.2942 144.872 61.5622 147.5C59.0907 156.443 56.1699 165.262 53.7491 174.219C51.9517 180.873 50.8646 187.65 52.4808 194.601C53.2925 198.099 55.7785 199.742 58.6993 200.857C61.5694 201.951 62.5261 199.148 64.1134 197.686C66.2949 195.68 68.491 193.696 70.6798 191.705C71.1871 191.9 71.7017 192.103 72.2091 192.299C72.6657 195.934 73.6731 199.605 73.4557 203.196C73.115 208.692 72.0061 214.028 68.7157 218.879C64.9396 224.455 59.743 225.787 53.8216 224.86C48.8932 224.085 45.6969 220.443 45.1606 215.657C44.3054 208.091 42.979 200.22 44.1749 192.856C46.284 179.903 50.0673 167.224 53.3433 154.473C54.126 151.425 55.6625 148.579 56.9091 145.364Z" fill="#FCFCFC"></path><path d="M807.721 92.3625C811.693 75.3613 821.985 53.1541 828.783 47.8032C829.015 49.6351 829.645 51.1195 829.269 52.2635C827.21 58.4471 824.927 64.5655 822.673 70.6839C820.252 77.2584 817.527 83.7316 815.425 90.4075C814.048 94.7809 814.853 99.3426 817.578 103.079C818.803 104.759 821.296 106.793 822.934 106.576C824.811 106.323 826.92 104.042 827.949 102.123C829.348 99.5018 831.153 98.2782 834.175 97.9089C835.371 104.737 834.371 111.065 831.66 117.191C831.276 118.067 830.624 118.842 830.348 119.74C828.08 127.176 821.513 128.262 816.817 127.82C811.156 127.292 806.786 122.057 805.605 115.924C804.061 107.93 805.518 100.284 807.728 92.3698L807.721 92.3625Z" fill="#FDFDFD"></path><path d="M584.042 196.991C581.092 204.564 577.845 211.769 575.606 219.278C574.113 224.295 574.113 229.646 578.57 233.897C582.759 237.886 585.622 237.292 588.246 231.898C588.949 230.457 590.413 229.212 591.819 228.336C593.5 227.286 594.587 228.263 594.66 230.124C595.015 239.161 592.761 247.553 587.035 254.547C582.361 260.253 571.322 258.16 567.677 251.238C564.647 245.489 564.451 239.291 565.314 233.042C567.213 219.328 572.163 206.534 577.7 193.993C579.853 189.113 582.984 184.653 585.767 180.069C586.282 179.215 587.274 178.657 588.405 177.644C590.152 185.094 586.789 190.843 584.042 196.998V196.991Z" fill="white"></path><path d="M137.88 99.4729C140.99 97.4817 143.766 95.266 146.926 94.0134C167.596 85.7879 188.361 77.7942 209.075 69.6774C212.851 68.193 216.54 66.4842 220.272 64.884C220.577 65.1447 220.881 65.4126 221.186 65.6733C218.41 70.3508 216.141 75.4555 212.655 79.5247C210.647 81.8707 206.748 82.7106 203.581 83.9198C180.497 92.7607 157.391 101.529 134.286 110.305C133.771 110.5 133.177 110.472 131.778 110.66C133.974 106.612 135.851 103.151 137.888 99.4729H137.88Z" fill="#FCFCFC"></path><path d="M134.467 73.6524C137.221 63.8195 146.077 62.27 153.528 59.2579C174.575 50.7501 195.768 42.597 216.909 34.3209C218.054 33.872 219.243 33.5244 221.512 32.7642C218.395 38.2671 215.887 42.8794 213.155 47.3469C212.619 48.2231 211.242 48.6865 210.169 49.1137C193.224 55.8475 176.293 62.6103 159.297 69.2139C151.187 72.3636 142.954 75.1947 134.771 78.1561C134.054 78.4168 133.285 78.5254 131.908 78.8585C132.945 76.8166 133.684 75.3685 134.467 73.6524Z" fill="#FCFCFC"></path></g><defs><clipPath id="clip0_189_6"><rect width="1182" height="370" fill="white"></rect></clipPath></defs></svg>