<svg xmlns="http://www.w3.org/2000/svg" width="488" height="64" viewBox="0 0 488 64" fill="none"><g clip-path="url(#clip0_398_32)"><path d="M388.203 30.5671H461.738C461.738 30.5671 463.17 31.5224 463.17 32C463.17 32.4776 462.693 33.4328 461.738 33.4328H388.203C388.203 33.4328 386.771 32.9552 386.771 32C386.771 31.0448 387.726 30.5671 388.203 30.5671Z" fill="#E09F3E"></path><path d="M467.468 32C467.468 32 469.378 28.1791 471.288 28.1791C473.198 28.1791 475.108 30.0895 475.108 32C475.108 33.9104 473.198 35.8209 471.288 35.8209C469.378 35.8209 467.468 33.9104 467.468 32Z" fill="#3A5A40"></path><path d="M477.495 31.9999C477.495 29.1343 479.883 26.7462 482.748 26.7462C485.613 26.7462 488 29.1343 488 31.9999C488 34.8656 485.613 37.2537 482.748 37.2537C479.883 37.2537 477.495 34.8656 477.495 31.9999Z" fill="#3A5A40"></path><path d="M374.834 32C374.834 32 376.744 28.1791 378.654 28.1791C380.564 28.1791 382.474 30.0895 382.474 32C382.474 33.9104 380.564 35.8209 378.654 35.8209C376.744 35.8209 374.834 33.9104 374.834 32Z" fill="#3A5A40"></path><path d="M367.194 37.2537C370.095 37.2537 372.446 34.9015 372.446 31.9999C372.446 29.0984 370.095 26.7462 367.194 26.7462C364.293 26.7462 361.941 29.0984 361.941 31.9999C361.941 34.9015 364.293 37.2537 367.194 37.2537Z" fill="#3A5A40"></path><path d="M26.2623 30.5671H99.7966C99.7966 30.5671 101.229 31.5224 101.229 32C101.229 32.4776 100.274 33.4328 99.7966 33.4328H26.2623C26.2623 33.4328 24.8298 32.9552 24.8298 32C24.8298 31.0448 25.7848 30.5671 26.2623 30.5671Z" fill="#E09F3E"></path><path d="M105.526 32C105.526 32 107.436 28.1791 109.346 28.1791C111.256 28.1791 113.166 30.0895 113.166 32C113.166 33.9104 111.256 35.8209 109.346 35.8209C107.436 35.8209 105.526 33.9104 105.526 32Z" fill="#3A5A40"></path><path d="M116.031 31.9999C116.031 29.1343 118.419 26.7462 121.284 26.7462C124.149 26.7462 126.536 29.1343 126.536 31.9999C126.536 34.8656 124.149 37.2537 121.284 37.2537C118.419 37.2537 116.031 34.8656 116.031 31.9999Z" fill="#3A5A40"></path><path d="M12.8923 32C12.8923 32 14.8023 28.1791 16.7123 28.1791C18.6223 28.1791 20.5323 30.0895 20.5323 32C20.5323 33.9104 18.6223 35.8209 16.7123 35.8209C14.8023 35.8209 12.8923 33.9104 12.8923 32Z" fill="#3A5A40"></path><path d="M0 31.9999C0 29.1343 2.38748 26.7462 5.25245 26.7462C8.11742 26.7462 10.5049 29.1343 10.5049 31.9999C10.5049 34.8656 8.11742 37.2537 5.25245 37.2537C2.38748 37.2537 0 34.8656 0 31.9999Z" fill="#3A5A40"></path><path d="M240.18 7.16418C237.793 11.4627 234.928 15.7612 232.54 20.0597C228.243 22.9254 223.945 25.3134 219.648 27.7015C217.26 29.1343 214.873 30.5672 212.485 31.5224C214.873 32.9552 217.26 33.9104 219.648 35.3433C223.945 37.7313 228.243 40.597 232.54 42.9851C235.405 47.2836 237.793 51.5821 240.18 55.8806C241.613 58.2687 243.045 60.6567 244 63.0448C245.433 60.6567 246.388 58.2687 247.82 55.8806C250.207 51.5821 253.072 47.2836 255.46 42.9851C259.757 40.1194 264.055 37.7313 268.352 35.3433C270.74 33.9104 273.127 32.4776 275.515 31.5224C273.127 30.0896 270.74 29.1343 268.352 27.7015C264.055 25.3134 259.757 22.4478 255.46 20.0597C252.595 15.7612 250.207 11.4627 247.82 7.16418C246.388 4.77612 244.955 2.38806 244 0C242.568 2.38806 241.613 4.77612 240.18 7.16418ZM263.1 32C259.28 34.3881 254.982 36.2985 250.685 38.6866C248.297 42.9851 246.388 46.806 244 51.1045C242.09 47.2836 239.703 42.9851 237.315 38.6866C233.018 36.2985 229.198 34.3881 224.9 32C228.72 29.6119 233.018 27.7015 237.315 25.3134C239.703 21.0149 241.613 17.194 244 12.8955C246.388 16.7164 248.297 21.0149 250.685 25.3134C254.982 27.7015 258.802 29.6119 263.1 32Z" fill="#E09F3E"></path><path d="M133.699 32C133.699 32 131.311 28.6567 130.834 27.2239C130.356 24.3582 130.834 21.9702 131.311 20.5373C133.221 17.194 135.608 16.7164 135.608 16.7164C135.608 16.7164 133.221 17.6717 132.744 21.0149C132.744 22.4478 132.744 24.8358 133.221 26.7463C134.176 28.6567 136.086 30.5672 138.473 31.0448C140.861 32 144.203 31.5224 147.068 30.5672C149.933 29.612 152.798 27.2239 155.186 24.8358C158.051 22.4478 160.438 19.1045 163.781 16.2388C167.123 13.3731 170.943 10.0299 175.718 9.07464C180.493 7.64181 186.223 8.11942 190.043 10.9851C193.863 13.8508 195.773 18.1493 195.773 22.4478C195.773 24.3582 194.818 26.7463 193.863 28.1791C192.908 29.612 191.475 30.5672 190.043 31.5224C187.178 32.9552 184.313 32.9552 181.926 31.5224C177.628 30.0896 176.196 26.7463 175.241 25.3134C174.763 23.403 174.763 22.4478 174.763 22.4478C174.763 22.4478 174.763 23.403 176.196 24.3582C177.151 25.3134 179.538 27.2239 182.88 27.7015C184.313 27.7015 186.223 27.7015 187.655 26.2687C189.088 25.3134 190.043 23.8806 190.043 21.9702C190.043 20.0597 188.61 17.6717 186.7 16.7164C184.79 15.2836 181.448 15.2836 178.106 16.2388C171.421 18.1493 166.168 24.8358 159.483 29.612C158.051 30.5672 157.096 31.5224 155.663 32.4776C157.096 33.4329 158.528 34.3881 159.483 35.3433C166.168 40.597 171.421 47.2836 178.106 48.7164C181.448 49.6717 184.79 49.194 186.7 48.2388C188.61 46.806 190.043 44.4179 190.043 42.9851C190.043 41.0746 189.088 39.6418 187.655 38.6866C186.223 37.7314 184.313 37.2537 182.88 37.2537C179.538 37.2537 177.628 39.1642 176.196 40.597C174.763 42.0299 174.763 42.5075 174.763 42.5075C174.763 42.5075 174.763 41.5523 175.241 39.6418C176.196 38.209 177.628 34.8657 181.926 33.4328C184.313 32.4776 187.178 32.4776 190.043 33.4328C191.475 33.9105 192.908 34.8657 193.863 36.7761C194.818 38.209 195.773 40.1194 195.773 42.5075C195.773 46.806 193.863 51.1045 190.043 53.9702C185.745 56.8358 180.493 57.3134 175.718 55.8806C170.943 54.4478 166.646 51.5821 163.781 48.7164C160.438 45.8508 158.051 42.5075 155.186 40.1194C152.321 37.7314 149.933 35.3433 147.068 34.3881C144.203 33.4329 141.338 32.9552 138.473 33.9105C136.086 34.3881 134.176 36.2985 133.221 38.209C132.266 40.1194 132.266 42.5075 132.744 43.9403C133.699 47.2836 136.086 48.2388 135.608 48.2388C135.608 48.2388 133.221 48.2388 131.311 44.4179C130.356 42.5075 129.879 40.1194 130.834 37.7314C130.834 35.8209 132.266 34.3881 133.699 32.9552V32Z" fill="#E09F3E"></path><path d="M354.301 32C354.301 32 356.689 35.3433 357.166 36.7762C357.644 39.6418 357.166 42.0299 356.689 43.4627C354.779 46.806 352.391 47.2836 352.391 47.2836C352.391 47.2836 354.779 46.3284 355.256 42.9851C355.256 41.5523 355.256 39.1642 354.779 37.2538C353.824 35.3433 351.914 33.4329 349.526 32.9553C347.139 32 343.797 32.4776 340.932 33.4329C338.067 34.3881 335.202 36.7762 332.814 39.1642C329.949 41.5523 327.562 44.8956 324.219 47.7612C320.877 50.6269 317.057 53.9702 312.282 54.9254C307.507 56.3582 301.777 55.8806 297.957 53.015C294.137 50.1493 292.227 45.8508 292.227 41.5523C292.227 39.6418 293.182 37.2538 294.137 35.8209C295.092 34.3881 296.525 33.4329 297.957 32.4776C300.822 31.0448 303.687 31.0448 306.074 32.4776C310.372 33.9105 311.804 37.2538 312.759 38.6866C313.237 40.5971 313.237 41.5523 313.237 41.5523C313.237 41.5523 313.237 40.5971 311.804 39.6418C310.849 38.6866 308.462 36.7762 305.119 36.2985C303.687 36.2985 301.777 36.2985 300.344 37.7314C298.912 38.6866 297.957 40.1194 297.957 42.0299C297.957 43.9403 299.389 46.3284 301.299 47.2836C303.209 48.7165 306.552 48.7165 309.894 47.7612C316.579 45.8508 321.832 39.1642 328.517 34.3881C329.949 33.4329 330.904 32.4777 332.337 31.5224C330.904 30.5672 329.472 29.612 328.517 28.6568C321.832 23.403 316.579 16.7165 309.894 15.2836C306.552 14.3284 303.209 14.806 301.299 15.7612C299.389 17.1941 297.957 19.5821 297.957 21.015C297.957 22.9254 298.912 24.3582 300.344 25.3135C301.777 26.2687 303.687 26.7463 305.119 26.7463C308.462 26.7463 310.372 24.8359 311.804 23.403C313.237 21.9702 313.237 21.4926 313.237 21.4926C313.237 21.4926 313.237 22.4478 312.759 24.3582C311.804 25.7911 310.372 29.1344 306.074 30.5672C303.687 31.5224 300.822 31.5224 297.957 30.5672C296.525 30.0896 295.092 29.1344 294.137 27.2239C293.182 25.7911 292.227 23.8806 292.227 21.4926C292.227 17.1941 294.137 12.8956 297.957 10.0299C302.254 7.16422 307.507 6.68661 312.282 8.11944C317.057 9.55228 321.354 12.4179 324.219 15.2836C327.562 18.1493 329.949 21.4926 332.814 23.8806C335.679 26.2687 338.067 28.6568 340.932 29.612C343.797 30.5672 346.662 31.0448 349.526 30.0896C351.914 29.612 353.824 27.7015 354.779 25.7911C355.734 23.8806 355.734 21.4926 355.256 20.0597C354.301 16.7165 351.914 15.7612 352.391 15.7612C352.391 15.7612 354.779 15.7612 356.689 19.5821C357.644 21.4926 358.121 23.8806 357.166 26.2687C357.166 28.1791 355.734 29.612 354.301 31.0448V32Z" fill="#E09F3E"></path><path d="M196.728 32.0001C196.728 32.0001 200.07 30.0896 201.503 28.6568C205.323 25.3135 207.71 21.4926 209.143 20.0598C212.008 17.1941 217.26 14.806 219.17 16.7165C221.08 18.6269 219.17 23.8807 215.35 27.2239C213.918 28.6568 210.098 31.0448 205.8 32.4777C210.098 33.9105 213.918 36.2986 215.35 37.7314C218.693 41.0747 221.08 46.3284 219.17 48.2389C217.26 50.1493 212.008 47.7612 209.143 44.8956C207.71 43.4627 204.845 39.6418 201.503 36.2986C200.07 34.8657 198.638 33.9105 196.728 32.9553V32.0001Z" fill="#588157"></path><path d="M291.749 32C291.749 32 288.407 33.9104 286.974 35.3432C283.155 38.6865 280.767 42.5074 279.335 43.9403C276.47 46.8059 271.217 49.194 269.307 47.2835C267.397 45.3731 269.307 40.1194 273.127 36.7761C274.56 35.3432 278.38 32.9552 282.677 31.5223C278.38 30.0895 274.56 27.7015 273.127 26.2686C269.785 22.9253 267.397 17.6716 269.307 15.7612C271.217 13.8507 276.47 16.2388 279.335 19.1044C280.767 20.5373 283.632 24.3582 286.974 27.7014C288.407 29.1343 289.839 30.0895 291.749 31.0447V32Z" fill="#588157"></path><path d="M257.37 18.6268C255.937 15.7612 254.027 10.985 252.595 9.07458C254.027 10.985 257.37 14.3283 259.757 16.2388C262.145 18.6268 265.01 21.9701 266.92 23.4029C265.01 21.9701 260.235 20.0597 257.37 18.6268Z" fill="#9E2A2B"></path><path d="M230.63 18.6268C227.765 20.0597 222.99 21.9701 221.08 23.4029C222.99 21.9701 226.333 18.6268 228.243 16.2388C230.63 13.8507 233.973 10.985 235.405 9.07458C233.973 10.985 232.063 15.7612 230.63 18.6268Z" fill="#9E2A2B"></path><path d="M230.63 45.3732C232.063 48.2388 233.973 53.015 235.405 54.9254C233.973 53.015 230.63 49.6717 228.243 47.7612C225.855 45.3732 222.99 42.0299 221.08 40.597C222.99 42.0299 227.765 43.9403 230.63 45.3732Z" fill="#9E2A2B"></path><path d="M257.37 45.3732C260.235 43.9403 265.01 42.0299 266.92 40.597C265.01 42.0299 261.667 45.3732 259.757 47.7612C257.37 50.1493 254.027 53.015 252.595 54.9254C254.027 53.015 255.937 48.2388 257.37 45.3732Z" fill="#9E2A2B"></path><path d="M285.065 47.7612C285.065 47.7612 283.632 44.8955 284.11 42.9851C284.11 42.0298 286.02 39.6418 287.93 38.209C289.84 36.2985 291.75 35.3433 293.182 34.3881C291.75 35.3433 290.317 37.2537 289.362 39.6418C288.407 41.5522 287.93 43.4627 287.93 44.4179C287.452 45.8507 286.02 48.2388 285.065 47.7612Z" fill="#3A5A40"></path><path d="M202.935 16.2388C202.935 16.2388 204.368 19.1044 203.89 21.0149C203.89 21.9701 201.98 24.3582 200.07 25.791C198.16 27.7014 196.25 28.6567 194.818 29.6119C196.25 28.6567 197.683 26.7462 198.638 24.3582C199.593 22.4477 200.07 20.5373 200.07 19.582C200.548 18.1492 201.98 15.7611 202.935 16.2388Z" fill="#3A5A40"></path><path d="M285.065 16.2388C285.065 16.2388 283.632 19.1044 284.11 21.0149C284.11 21.9701 286.02 24.3582 287.93 25.791C289.84 27.7014 291.75 28.6567 293.182 29.6119C291.75 28.6567 290.317 26.7462 289.362 24.3582C288.407 22.4477 287.93 20.5373 287.93 19.582C287.452 18.1492 286.02 15.7611 285.065 16.2388Z" fill="#3A5A40"></path><path d="M202.935 47.7612C202.935 47.7612 204.368 44.8955 203.89 42.9851C203.89 42.0298 201.98 39.6418 200.07 38.209C198.16 36.2985 196.25 35.3433 194.818 34.3881C196.25 35.3433 197.683 37.2537 198.638 39.6418C199.593 41.5522 200.07 43.4627 200.07 44.4179C200.548 45.8507 201.98 48.2388 202.935 47.7612Z" fill="#3A5A40"></path></g><defs><clipPath id="clip0_398_32"><rect width="488" height="64" fill="white"></rect></clipPath></defs></svg>